<?xml version="1.0" encoding="utf-8"?>
<!-- Generator: Adobe Illustrator 17.0.0, SVG Export Plug-In . SVG Version: 6.00 Build 0)  -->
<!DOCTYPE svg PUBLIC "-//W3C//DTD SVG 1.1//EN" "http://www.w3.org/Graphics/SVG/1.1/DTD/svg11.dtd">
<svg version="1.1" id="Layer_2" xmlns="http://www.w3.org/2000/svg" xmlns:xlink="http://www.w3.org/1999/xlink" x="0px" y="0px"
	 width="12px" height="48px" viewBox="-1.502 -0.5 12 48" enable-background="new -1.502 -0.5 12 48" xml:space="preserve">
<path fill="#D5D5D5" d="M9.257,4.571c-0.205-0.029-0.423-0.214-0.486-0.41l-0.304-0.74c-0.095-0.182-0.073-0.467,0.05-0.632
	L9.012,2.13c0.123-0.165,0.113-0.427-0.023-0.581L8.446,1.006C8.292,0.87,8.03,0.86,7.864,0.984L7.206,1.477
	C7.042,1.601,6.758,1.624,6.575,1.528l-0.74-0.304c-0.197-0.063-0.382-0.281-0.41-0.485L5.308-0.076
	C5.28-0.281,5.088-0.465,4.883-0.487c0,0-0.127-0.013-0.385-0.013c-0.257,0-0.384,0.013-0.384,0.013
	C3.909-0.465,3.717-0.281,3.688-0.076L3.572,0.738c-0.029,0.205-0.214,0.423-0.41,0.486l-0.74,0.304
	C2.239,1.623,1.955,1.601,1.79,1.478L1.131,0.983C0.966,0.859,0.704,0.869,0.55,1.006L0.008,1.548
	c-0.136,0.155-0.147,0.416-0.023,0.581l0.494,0.659C0.603,2.953,0.625,3.237,0.53,3.42L0.224,4.161
	c-0.062,0.196-0.281,0.381-0.485,0.41l-0.814,0.115c-0.204,0.029-0.389,0.221-0.41,0.426c0,0-0.013,0.127-0.013,0.385
	s0.013,0.385,0.013,0.385c0.021,0.205,0.206,0.396,0.41,0.426l0.814,0.116c0.204,0.029,0.423,0.214,0.485,0.41l0.305,0.74
	c0.096,0.182,0.074,0.468-0.05,0.631l-0.494,0.659c-0.124,0.165-0.154,0.39-0.066,0.497c0.087,0.108,0.338,0.376,0.339,0.377
	S0.343,9.816,0.445,9.91s0.521,0.224,0.686,0.101l0.658-0.495c0.165-0.123,0.449-0.146,0.632-0.05l0.74,0.304
	c0.197,0.062,0.381,0.281,0.41,0.485l0.116,0.814c0.029,0.204,0.22,0.389,0.426,0.411c0,0.002,0.128,0.015,0.385,0.015
	s0.385-0.013,0.385-0.013c0.204-0.021,0.396-0.207,0.425-0.411l0.117-0.814c0.028-0.204,0.213-0.423,0.41-0.485l0.74-0.305
	c0.182-0.095,0.467-0.073,0.632,0.051l0.659,0.495c0.166,0.123,0.427,0.113,0.582-0.023l0.541-0.542
	c0.136-0.155,0.146-0.417,0.023-0.582L8.516,8.205c-0.123-0.164-0.145-0.449-0.05-0.632l0.304-0.74
	c0.063-0.196,0.281-0.381,0.486-0.41l0.813-0.116c0.205-0.029,0.389-0.22,0.411-0.426c0,0,0.013-0.127,0.013-0.385
	S10.48,5.111,10.48,5.111c-0.021-0.205-0.206-0.397-0.411-0.426L9.257,4.571z M4.498,7.663c-1.196,0-2.166-0.97-2.166-2.166
	s0.97-2.166,2.166-2.166s2.166,0.97,2.166,2.166S5.694,7.663,4.498,7.663z"/>
<path fill="#C3C3C3" d="M9.257,34.571c-0.205-0.029-0.423-0.214-0.486-0.41l-0.304-0.74c-0.095-0.182-0.073-0.467,0.05-0.632
	l0.495-0.659c0.123-0.165,0.113-0.427-0.023-0.581l-0.542-0.543c-0.154-0.136-0.416-0.146-0.582-0.022l-0.658,0.494
	c-0.165,0.124-0.449,0.146-0.632,0.05l-0.74-0.304c-0.197-0.063-0.382-0.281-0.41-0.485l-0.117-0.815
	c-0.028-0.204-0.22-0.389-0.425-0.411c0,0-0.127-0.013-0.385-0.013c-0.257,0-0.384,0.013-0.384,0.013
	c-0.205,0.022-0.397,0.206-0.426,0.411l-0.116,0.814c-0.029,0.204-0.213,0.422-0.41,0.485l-0.74,0.304
	c-0.183,0.095-0.467,0.073-0.632-0.05l-0.659-0.494c-0.165-0.124-0.427-0.114-0.581,0.022l-0.542,0.543
	c-0.136,0.154-0.147,0.416-0.023,0.581l0.494,0.659c0.124,0.165,0.146,0.449,0.051,0.632l-0.305,0.741
	c-0.062,0.196-0.281,0.381-0.485,0.41l-0.814,0.115c-0.204,0.029-0.388,0.221-0.41,0.426c0,0-0.013,0.127-0.013,0.385
	c0,0.257,0.013,0.385,0.013,0.385c0.021,0.205,0.206,0.396,0.41,0.426l0.814,0.116c0.204,0.029,0.423,0.214,0.485,0.41l0.305,0.74
	c0.095,0.182,0.073,0.468-0.051,0.632l-0.494,0.659c-0.124,0.165-0.154,0.389-0.066,0.497c0.087,0.108,0.338,0.376,0.339,0.377
	c0,0.001,0.085,0.078,0.187,0.172c0.102,0.094,0.521,0.224,0.686,0.101l0.658-0.495c0.165-0.123,0.449-0.146,0.632-0.05l0.74,0.304
	c0.197,0.062,0.381,0.281,0.41,0.485l0.116,0.814c0.029,0.204,0.22,0.389,0.426,0.411c0,0,0.127,0.013,0.384,0.013
	s0.385-0.013,0.385-0.013c0.204-0.021,0.396-0.207,0.425-0.411l0.117-0.814c0.028-0.204,0.213-0.423,0.41-0.485l0.74-0.305
	c0.182-0.095,0.467-0.073,0.632,0.051l0.659,0.495c0.166,0.123,0.427,0.113,0.582-0.023l0.541-0.542
	c0.136-0.155,0.146-0.417,0.023-0.582l-0.495-0.659c-0.123-0.164-0.145-0.449-0.05-0.632l0.304-0.74
	c0.063-0.196,0.281-0.381,0.486-0.41l0.813-0.116c0.205-0.029,0.389-0.22,0.411-0.426c0,0,0.013-0.127,0.013-0.385
	c0-0.257-0.013-0.385-0.013-0.385c-0.021-0.205-0.206-0.397-0.411-0.426L9.257,34.571z M4.498,37.663
	c-1.196,0-2.166-0.97-2.166-2.166s0.97-2.166,2.166-2.166s2.166,0.97,2.166,2.166S5.694,37.663,4.498,37.663z"/>
</svg>
